<?xml version="1.0" encoding="UTF-8"?>
<svg xmlns="http://www.w3.org/2000/svg" viewBox="0 0 443.92 335.71">
  <g fill="none" isolation="isolate">
    <g id="OBJECTS">
      <g>
        <polyline points="48 191.38 18.61 191.38 18.61 1.83 48 1.83" fill="none" stroke="#fe5e7d" stroke-miterlimit="10" stroke-width="3.67"/>
        <polyline points="395.92 191.38 425.32 191.38 425.32 1.83 395.92 1.83" fill="none" stroke="#fe5e7d" stroke-miterlimit="10" stroke-width="3.67"/>
        <g>
          <rect x="34.07" y="22.71" width="35.43" height="6" fill="#5807cb"/>
          <rect x="34.07" y="32.13" width="58.33" height="6" fill="#3ebaff"/>
          <rect x="34.07" y="41.54" width="58.33" height="6" fill="#3ebaff"/>
          <rect x="34.07" y="50.96" width="58.33" height="6" fill="#3ebaff"/>
        </g>
        <g>
          <rect x="34.07" y="70.39" width="35.43" height="6" fill="#5807cb"/>
          <rect x="34.07" y="79.81" width="58.33" height="6" fill="#3ebaff"/>
          <rect x="34.07" y="89.22" width="58.33" height="6" fill="#3ebaff"/>
          <rect x="34.07" y="98.63" width="58.33" height="6" fill="#3ebaff"/>
        </g>
        <g>
          <rect x="34.07" y="117.13" width="35.43" height="6" fill="#5807cb"/>
          <rect x="34.07" y="126.55" width="58.33" height="6" fill="#3ebaff"/>
          <rect x="34.07" y="135.96" width="58.33" height="6" fill="#3ebaff"/>
          <rect x="34.07" y="145.38" width="58.33" height="6" fill="#3ebaff"/>
        </g>
        <g>
          <path d="m394.58,31.58c0,4.35-1.57,8.34-4.16,11.43-3.27,3.89-8.16,6.37-13.64,6.37s-10.37-2.47-13.63-6.36c-2.6-3.09-4.16-7.08-4.16-11.44,0-9.83,7.97-17.8,17.8-17.8s17.8,7.97,17.8,17.8Z" fill="#3ebaff"/>
          <path d="m390.43,43.01c-3.27,3.89-8.16,6.37-13.64,6.37s-10.37-2.47-13.63-6.36c1.35-3.49,4-6.32,7.36-7.91-1.3-1.48-2.1-3.41-2.1-5.53,0-4.62,3.75-8.37,8.37-8.37s8.37,3.75,8.37,8.37c0,2.12-.79,4.06-2.1,5.53,3.35,1.6,6,4.43,7.37,7.91Z" fill="#5807cb"/>
        </g>
        <g>
          <path d="m394.58,74.77c0,4.35-1.57,8.34-4.16,11.43-3.27,3.89-8.16,6.37-13.64,6.37s-10.37-2.47-13.63-6.36c-2.6-3.09-4.16-7.08-4.16-11.44,0-9.83,7.97-17.8,17.8-17.8s17.8,7.97,17.8,17.8Z" fill="#3ebaff"/>
          <path d="m390.43,86.2c-3.27,3.89-8.16,6.37-13.64,6.37s-10.37-2.47-13.63-6.36c1.35-3.49,4-6.32,7.36-7.91-1.3-1.48-2.1-3.41-2.1-5.53,0-4.62,3.75-8.37,8.37-8.37s8.37,3.75,8.37,8.37c0,2.12-.79,4.06-2.1,5.53,3.35,1.6,6,4.43,7.37,7.91Z" fill="#5807cb"/>
        </g>
        <g>
          <path d="m394.58,120.74c0,4.35-1.57,8.34-4.16,11.43-3.27,3.89-8.16,6.37-13.64,6.37s-10.37-2.47-13.63-6.36c-2.6-3.09-4.16-7.08-4.16-11.44,0-9.83,7.97-17.8,17.8-17.8s17.8,7.97,17.8,17.8Z" fill="#3ebaff"/>
          <path d="m369.78,113.79v15.23c0,1.51,1.62,2.47,2.95,1.74l13.61-7.52c1.36-.75,1.37-2.7.02-3.47l-13.61-7.72c-1.32-.75-2.97.21-2.97,1.73Z" fill="#5807cb"/>
        </g>
      </g>
      <g>
        <rect x="128.41" y="61.05" width="187.11" height="199.16" rx="34" ry="34" fill="#3e0599"/>
        <g>
          <g>
            <path d="m147.79,133.9h-19.44c-5.54,0-10.08-4.54-10.08-10.08l3.67-28.53-3.67-23.3c0-5.54,4.54-10.08,10.08-10.08h19.44c5.54,0,10.08,4.54,10.08,10.08l-3.67,23.3,3.67,28.53c0,5.54-4.54,10.08-10.08,10.08Z" fill="#3e0599"/>
            <path d="m128.35,132.07c-4.51,0-8.19-3.64-8.25-8.14l3.68-28.67-3.68-23.4c.07-4.48,3.74-8.11,8.25-8.11h19.44c4.5,0,8.17,3.63,8.25,8.11l-3.68,23.4,3.68,28.67c-.05,4.5-3.73,8.14-8.25,8.14h-19.44Z" fill="#5807cb"/>
            <g>
              <g>
                <circle cx="137.65" cy="82.59" r="12.27" transform="translate(25.78 197.72) rotate(-76.79)" fill="#3e0599"/>
                <path d="m137.65,87.54c-2.73,0-4.94-2.22-4.94-4.94s2.22-4.94,4.94-4.94,4.94,2.22,4.94,4.94-2.22,4.94-4.94,4.94Z" fill="#5807cb"/>
              </g>
              <g>
                <circle cx="137.65" cy="112.95" r="12.27" transform="translate(-3.77 221.14) rotate(-76.79)" fill="#3e0599"/>
                <path d="m137.65,117.9c-2.73,0-4.94-2.22-4.94-4.94s2.22-4.94,4.94-4.94,4.94,2.22,4.94,4.94-2.22,4.94-4.94,4.94Z" fill="#5807cb"/>
              </g>
            </g>
          </g>
          <g>
            <path d="m315.57,133.9h-19.44c-5.54,0-10.08-4.54-10.08-10.08l3.67-28.53-3.67-23.3c0-5.54,4.54-10.08,10.08-10.08h19.44c5.54,0,10.08,4.54,10.08,10.08l-3.67,23.3,3.67,28.53c0,5.54-4.54,10.08-10.08,10.08Z" fill="#3e0599"/>
            <path d="m296.13,132.07c-4.51,0-8.19-3.64-8.25-8.14l3.68-28.67-3.68-23.4c.07-4.48,3.74-8.11,8.25-8.11h19.44c4.5,0,8.17,3.63,8.25,8.11l-3.68,23.4,3.68,28.67c-.05,4.5-3.73,8.14-8.25,8.14h-19.44Z" fill="#5807cb"/>
            <g>
              <g>
                <circle cx="305.43" cy="82.59" r="12.27" transform="translate(-8.23 124.15) rotate(-22.68)" fill="#3e0599"/>
                <path d="m305.43,87.54c-2.73,0-4.94-2.22-4.94-4.94s2.22-4.94,4.94-4.94,4.94,2.22,4.94,4.94-2.22,4.94-4.94,4.94Z" fill="#5807cb"/>
              </g>
              <g>
                <circle cx="305.43" cy="112.95" r="12.27" transform="translate(-19.94 126.5) rotate(-22.68)" fill="#3e0599"/>
                <path d="m305.43,117.9c-2.73,0-4.94-2.22-4.94-4.94s2.22-4.94,4.94-4.94,4.94,2.22,4.94,4.94-2.22,4.94-4.94,4.94Z" fill="#5807cb"/>
              </g>
            </g>
          </g>
        </g>
      </g>
      <g>
        <path d="m239.1,128c4.89,1.21,39.81,41.61,79.68,96.59l58.18-11.95s-2.82-57.49-100.79-96.1c-5.98-2.36-30.37,11.86-37.07,11.46Z" fill="#ffb133"/>
        <path d="m204.15,128c-4.89,1.21-35.2,33.16-67.89,121.33l-92.4-29.36s78.34-94.69,118.92-102.02c27.72-5.01,34.67,10.44,41.37,10.05Z" fill="#ffb133"/>
        <path d="m300.65,326.13c-9.09.77-100.68,1.4-146.05,2.11-.23-5.84.44-28.06,1.66-56.06,2.71-62.47-3.22-148.67,1.18-151.11,7.17-2.24,38.81-11.09,40.79-11.32,6.02-.69,11.96-1.09,17.64-1.3,10.09-.36,18.62-.41,26.63.17,1.96.17,3.89.33,5.81.56,11.82,1.36,23.57,5.68,37.74,11.12.05.02,4.14,73.37,6.76,130.88.38,8.52,7.08,69.22,7.85,74.95Z" fill="#ffb133"/>
        <path d="m247.61,136.82c-2.38,4.27-6.47,7.4-12.49,9.58-4.57,1.67-9.38,2.6-14.29,2.78-5.3.19-10.54-.51-15.56-2.08-5.7-1.77-9.71-4.46-12.23-8.21-3.92-5.83-3.5-12.94-2.58-19.11.4-2.7.88-5.42,1.41-8.12,1.96-.31,4.14-1.94,6.1-2.16-.67,3.22-1.47,7.84-1.95,11.11-.76,5.15-1.18,10.88,1.69,15.15,2.13,3.16,5.71,4.88,9.22,5.98,8.54,2.65,17.86,2.43,26.27-.61,3.74-1.36,7.48-3.45,9.49-7.05,2.45-4.37,1.79-9.88.96-14.9-.51-3.15-1.36-7.98-1.92-11.11,1.96.16,4.01.64,5.92.87.49,2.66,1.12,6.7,1.55,9.34.96,5.88,1.7,12.64-1.61,18.56Z" fill="#fff"/>
        <path d="m242.7,134.06c-2.01,3.61-5.75,5.7-9.49,7.05-8.41,3.05-17.72,3.26-26.27.61-3.52-1.1-7.1-2.82-9.22-5.98-2.87-4.26-2.45-9.99-1.69-15.15.92-6.16,2.18-12.26,3.79-18.26.88-3.33,1.42-8.89,4.56-10.62,2.17-1.18,33.61-1.56,33.59-2.21,2.18,9.82,4.09,19.71,5.7,29.65.83,5.03,1.49,10.54-.96,14.9Z" fill="#aa654b"/>
        <path d="m242.7,134.06c-2.01,3.61-5.75,5.7-9.49,7.05-8.41,3.05-17.72,3.26-26.27.61-3.52-1.1-7.1-2.82-9.22-5.98-2.87-4.26-2.45-9.99-1.69-15.15.92-6.16,2.18-12.26,3.79-18.26.88-3.33,1.42-8.89,4.56-10.62,2.17-1.18,33.61-1.56,33.59-2.21,2.18,9.82,4.09,19.71,5.7,29.65.83,5.03,1.49,10.54-.96,14.9Z" fill="#fe5e7d"/>
        <path d="m242.7,134.06c-.28.5-.58.98-.92,1.41-.19-.06-.37-.14-.56-.21-12.62-4.73-24.7-11.96-32.69-22.82-3.21-4.36-5.66-9.19-7.8-14.18.65-2.68,1.6-5.42,3.64-6.55,2.17-1.18,33.61-1.56,33.59-2.21,2.18,9.82,4.09,19.71,5.7,29.65.83,5.03,1.49,10.54-.96,14.9Z" fill="#fe5e7d" mix-blend-mode="multiply" opacity=".42"/>
        <g>
          <path d="m191.31,62.17c.6-2.23,2.42-2.2,3.95-5.43,1.73-3.66,2.05-11.19,5.96-16.86,4.94-7.15,9.01-7.95,12.45-12.31.12-.15.25-.33.24-.53,0-.22-.17-.41-.32-.57-1.73-1.8-3.57-3.61-5.87-4.58-2.82-1.19-15.19,1.54-22,15.6-4.64,9.59-1.7,17.62-1.33,21.85-.1-1.12,4.55-1.69,5.12-1.3,1.17.8,1.9,2.77,1.8,4.13Z" fill="#5807cb"/>
          <path d="m214.4,13.86c3.46-2.22,8.08-2.57,11.76-.75,1.63.81,3.04,1.99,4.59,2.93,2.61,1.57,5.65,2.44,8.7,2.47-1.39.18-2.64,1.17-3.16,2.47,2.53.45,5.04,1.05,7.51,1.77,1.07.31,2.15.66,3.03,1.34,1.05.8,1.72,1.99,2.5,3.05,1.38,1.88,3.18,3.46,5.23,4.58-.95.32-1.9.65-2.85.97-.28.09-.58.21-.71.48-.2.41.15.87.49,1.18,1.7,1.56,3.75,2.84,4.92,4.84,1.58,2.7,1.19,6.14.18,9.11-.34.99-.74,2.05-.48,3.06.36,1.37,1.83,2.2,2.32,3.53.56,1.52-.32,3.15-1.04,4.6-1.18,2.37-2.03,4.9-2.51,7.49-.24-1.76-1.83-2.98-3.33-3.92-.53-.33-1.09-.68-1.39-1.23-.27-.5-.29-1.09-.3-1.65-.13-5.65-.45-11.3-.96-16.93-.16-1.78-.36-3.62-1.25-5.17-.69-1.21-1.76-2.15-2.8-3.07-3.29-2.9-6.7-5.86-10.84-7.31-3.14-1.1-6.52-1.26-9.85-1.23-3.12.04-6.23.25-9.33.61-2.01.23-5.38,1-6.43-1.37-1.7-3.83,3.08-9.99,5.98-11.85Z" fill="#5807cb"/>
          <g>
            <path d="m250.49,59.3l.55,15.47c.24,6.82-1.87,13.18-5.61,18.32-5.15,7.14-13.43,11.93-22.87,12.26l-1.41.05c-9.79.35-18.68-4.17-24.31-11.39-3.73-4.74-6.04-10.64-6.27-17.1l-.55-15.47c-.06-1.72.03-3.41.26-5.05,1.91-13.95,6.27-27.36,28.23-27.36l1.41-.05c22.73,0,27.07,11.51,29.97,25.29.34,1.62.55,3.3.62,5.02Z" fill="#fe5e7d"/>
            <path d="m194.28,64.4c.14,3.88-2.58,7.13-6.08,7.26-3.5.12-6.44-2.92-6.58-6.81-.14-3.88,2.58-7.13,6.08-7.26,3.5-.12,6.44,2.92,6.58,6.81Z" fill="#fe5e7d"/>
            <path d="m258.97,62.09c.14,3.88-2.58,7.13-6.08,7.26-3.5.12-6.44-2.92-6.58-6.81-.14-3.88,2.58-7.13,6.08-7.26,3.5-.12,6.44,2.92,6.58,6.81Z" fill="#fe5e7d"/>
          </g>
          <path d="m213.05,88.77c2.31,2.13,5.44,3.33,8.58,3.3,3.14-.04,6.24-1.31,8.5-3.49" fill="#fe5e7d" mix-blend-mode="multiply"/>
          <path d="m238.69,35.1c1.28,1.53,2.16,3.39,2.54,5.35.38,1.98.27,4.09,1.19,5.88.69,1.35,1.9,2.36,2.83,3.56,1.24,1.6,1.98,3.52,2.64,5.43,1.38,4.02,2.48,8.13,3.29,12.3,1.66-4.69,3.34-9.47,3.44-14.44.1-4.83-1.29-9.55-2.67-14.17-.79-2.65-1.59-5.32-2.99-7.7-2.34-3.97-6.26-6.86-10.54-8.58-4.28-1.72-8.93-2.34-13.54-2.52-2.92-.11-5.96-.03-8.56,1.29-1.86.94-5.66,4.12-4.5,6.42,1.09,2.17,5.79,4.14,7.89,5.08,5.91,2.63,12.65,3.45,18.99,2.1Z" fill="#5807cb"/>
          <path d="m226.49,45.47c-1.52-1.97-2.17-4.58-1.78-7.04,3.82,3.59,8.52,6.24,13.56,7.66-1.79-1.96-2.37-4.95-1.43-7.43,1.79,2.05,4.27,3.48,6.93,4,.95-2.6.63-5.57-.51-8.09-1.14-2.53-3.05-4.64-5.21-6.38-5.83-4.67-13.74-6.43-21.05-5.16-2.93.51-6.83,1.33-7.19,4.89-.35,3.46,2.57,6.87,4.81,9.14,3.43,3.47,7.69,5.96,11.87,8.42Z" fill="#5807cb"/>
          <path d="m203.61,33.57c-1.68,1.68-3.25,3.55-4.09,5.77-1.33,3.48-.76,7.36-.17,11.04-.86-1.73-1.56-3.54-2.09-5.4-1.7,5.33-.22,11.85-3.84,16.12.14-.73-.1-1.52-.63-2.04.21,3.95-.41,7.94-1.81,11.63.21-3.15-.48-6.35-1.98-9.13-.95-1.78-2.23-3.38-3.05-5.22-1.33-2.99-1.37-6.43-.63-9.61.75-3.18,2.24-6.14,3.91-8.95,1.92-3.23,4.11-6.35,6.94-8.83,2.83-2.48,6.34-4.3,10.09-4.59,2-.16,8.59,1.01,5.75,4.07-1.06,1.14-3.03,1.39-4.36,2.07-1.51.77-2.84,1.88-4.04,3.07Z" fill="#5807cb"/>
          <g>
            <rect x="180.93" y="50.71" width="78.99" height="36" rx="12.83" ry="12.83" fill="#407bff"/>
            <g>
              <path d="m257.25,63.74v10.14c0,5.89-4.79,10.68-10.68,10.68h-52.27c-2.53,0-4.86-.89-6.69-2.37-2.43-1.95-3.99-4.95-3.99-8.31v-10.14c0-5.89,4.79-10.68,10.68-10.68h52.27c3.59,0,6.77,1.77,8.7,4.5h0c1.25,1.76,1.98,3.88,1.98,6.18Z" fill="#3ebaff"/>
              <g fill="none" opacity=".41">
                <polygon points="235.93 53.06 224.14 84.57 207.67 84.57 219.46 53.06 235.93 53.06" fill="#fff"/>
                <path d="m214.97,53.06l-11.79,31.51h-8.89c-2.53,0-4.86-.89-6.69-2.37l10.9-29.14h16.47Z" fill="#fff"/>
                <path d="m255.26,57.56h0s-10.1,27.01-10.1,27.01h-16.51l11.79-31.51h6.12c3.59,0,6.77,1.77,8.7,4.5Z" fill="#fff"/>
              </g>
            </g>
          </g>
        </g>
        <g>
          <path d="m432,335.71H11.93c-8.8,0-14.56-9.21-10.71-17.12l28.82-59.29c2.3-4.73,7.1-7.74,12.36-7.74h359.13c5.26,0,10.06,3,12.36,7.74l28.82,59.29c3.85,7.91-1.92,17.12-10.71,17.12Z" fill="#3e0599"/>
          <g>
            <path d="m91.76,289.91c0,3.6-7.83,6.52-17.49,6.52s-17.49-2.92-17.49-6.52,7.83-6.52,17.49-6.52,17.49,2.92,17.49,6.52Z" fill="#bc99ff"/>
            <path d="m133.96,289.91c0,3.6-7.83,6.52-17.49,6.52s-17.49-2.92-17.49-6.52,7.83-6.52,17.49-6.52,17.49,2.92,17.49,6.52Z" fill="#bc99ff"/>
            <path d="m176.16,289.91c0,3.6-7.83,6.52-17.49,6.52s-17.49-2.92-17.49-6.52,7.83-6.52,17.49-6.52,17.49,2.92,17.49,6.52Z" fill="#fff"/>
            <path d="m218.35,289.91c0,3.6-7.83,6.52-17.49,6.52s-17.49-2.92-17.49-6.52,7.83-6.52,17.49-6.52,17.49,2.92,17.49,6.52Z" fill="#bc99ff"/>
            <path d="m260.55,289.91c0,3.6-7.83,6.52-17.49,6.52s-17.49-2.92-17.49-6.52,7.83-6.52,17.49-6.52,17.49,2.92,17.49,6.52Z" fill="#bc99ff"/>
            <path d="m302.75,289.91c0,3.6-7.83,6.52-17.49,6.52s-17.49-2.92-17.49-6.52,7.83-6.52,17.49-6.52,17.49,2.92,17.49,6.52Z" fill="#f4bb4f"/>
            <path d="m344.95,289.91c0,3.6-7.83,6.52-17.49,6.52s-17.49-2.92-17.49-6.52,7.83-6.52,17.49-6.52,17.49,2.92,17.49,6.52Z" fill="#3ebaff"/>
            <path d="m387.14,289.91c0,3.6-7.83,6.52-17.49,6.52s-17.49-2.92-17.49-6.52,7.83-6.52,17.49-6.52,17.49,2.92,17.49,6.52Z" fill="#fff"/>
          </g>
          <g>
            <path d="m59.73,314.67c0,3.6-7.83,6.52-17.49,6.52s-17.49-2.92-17.49-6.52,7.83-6.52,17.49-6.52,17.49,2.92,17.49,6.52Z" fill="#fff"/>
            <path d="m104.66,314.67c0,3.6-7.83,6.52-17.49,6.52s-17.49-2.92-17.49-6.52,7.83-6.52,17.49-6.52,17.49,2.92,17.49,6.52Z" fill="#f4bb4f"/>
            <path d="m149.59,314.67c0,3.6-7.83,6.52-17.49,6.52s-17.49-2.92-17.49-6.52,7.83-6.52,17.49-6.52,17.49,2.92,17.49,6.52Z" fill="#3ebaff"/>
            <path d="m194.52,314.67c0,3.6-7.83,6.52-17.49,6.52s-17.49-2.92-17.49-6.52,7.83-6.52,17.49-6.52,17.49,2.92,17.49,6.52Z" fill="#bc99ff"/>
            <path d="m239.45,314.67c0,3.6-7.83,6.52-17.49,6.52s-17.49-2.92-17.49-6.52,7.83-6.52,17.49-6.52,17.49,2.92,17.49,6.52Z" fill="#fff"/>
            <path d="m284.38,314.67c0,3.6-7.83,6.52-17.49,6.52s-17.49-2.92-17.49-6.52,7.83-6.52,17.49-6.52,17.49,2.92,17.49,6.52Z" fill="#bc99ff"/>
            <path d="m329.31,314.67c0,3.6-7.83,6.52-17.49,6.52s-17.49-2.92-17.49-6.52,7.83-6.52,17.49-6.52,17.49,2.92,17.49,6.52Z" fill="#fff"/>
            <path d="m374.24,314.67c0,3.6-7.83,6.52-17.49,6.52s-17.49-2.92-17.49-6.52,7.83-6.52,17.49-6.52,17.49,2.92,17.49,6.52Z" fill="#bc99ff"/>
            <path d="m419.17,314.67c0,3.6-7.83,6.52-17.49,6.52s-17.49-2.92-17.49-6.52,7.83-6.52,17.49-6.52,17.49,2.92,17.49,6.52Z" fill="#bc99ff"/>
          </g>
          <g>
            <path d="m151.23,266.51c0,3.6-7.83,6.52-17.49,6.52s-17.49-2.92-17.49-6.52,7.83-6.52,17.49-6.52,17.49,2.92,17.49,6.52Z" fill="#bc99ff"/>
            <path d="m195.34,266.51c0,3.6-7.83,6.52-17.49,6.52s-17.49-2.92-17.49-6.52,7.83-6.52,17.49-6.52,17.49,2.92,17.49,6.52Z" fill="#bc99ff"/>
            <path d="m239.45,266.51c0,3.6-7.83,6.52-17.49,6.52s-17.49-2.92-17.49-6.52,7.83-6.52,17.49-6.52,17.49,2.92,17.49,6.52Z" fill="#fff"/>
            <path d="m283.57,266.51c0,3.6-7.83,6.52-17.49,6.52s-17.49-2.92-17.49-6.52,7.83-6.52,17.49-6.52,17.49,2.92,17.49,6.52Z" fill="#bc99ff"/>
            <path d="m327.68,266.51c0,3.6-7.83,6.52-17.49,6.52s-17.49-2.92-17.49-6.52,7.83-6.52,17.49-6.52,17.49,2.92,17.49,6.52Z" fill="#bc99ff"/>
          </g>
        </g>
        <g>
          <path d="m319.1,172.7c5.05-5.89,13.65-7.69,21.32-6.46,7.66,1.23,14.64,5,21.46,8.71,6.66,3.63,13.86,7.88,16.3,15.06.27.79.43,1.79-.17,2.37-.36.35-.9.44-1.4.51-20.7,2.91-41.9,2.23-62.37-2-1.49-6.09.85-13.5,4.87-18.2Z" fill="#fe5e7d"/>
          <g>
            <path d="m306.9,185.98c-3.67,1.19-6.84,3.52-9.85,5.94-6.67,5.35-12.87,11.3-18.5,17.73-4.32,4.93-8.52,10.87-7.88,17.39.11,1.15.4,2.32,1.08,3.25,1.32,1.78,3.8,2.26,6,2.01,6.57-.74,11.28-6.37,16.1-10.89,3.88-3.64,8.25-6.77,12.94-9.29,4.87-2.61,10.37-4.81,13.35-9.46,6.4-10.01-2.46-20.17-13.24-16.68Z" fill="#fc426f"/>
            <path d="m298.64,204.69c-1.59,2.59-7.39,15.5-2.38,20.13,3.25,3,7.91,4.44,12.24,3.57,2.47-.49,8.37.48,10.33-1.11,5.59-4.51,4.08,1.08,7.09,1.94,2.86.82,20.59-3.66,23.41-4.58,2.94-.97,6.14-.61,9.22-.24,3.97.48,7.96.96,11.76,2.21,2.19.72,4.32,1.7,6.61,1.95,3.7.41,7.32-1.11,10.68-2.72,3.07-1.47,6.25-3.18,8.01-6.1,1.73-2.87,1.78-6.48,1.1-9.77-1.49-7.19-6.22-13.43-12.07-17.87-5.85-4.44-12.79-7.24-19.81-9.4-7.28-2.24-14.75-3.84-22.31-4.78-6.23-.78-13.83-2.4-19.45.58-11.03,5.85-17.91,15.6-24.44,26.2Z" fill="#fe5e7d"/>
            <path d="m384.19,243.99c.24-2.03,1.12-3.93,2.39-5.55" fill="none"/>
            <g>
              <path d="m322.15,237.32c-2.43,11.04-2.1,22.47-1.57,33.76.22,4.74.54,9.69,2.99,13.75,2.45,4.06,7.75,6.82,12.06,4.83,2.16-1,3.69-2.97,4.9-5.02,8.36-14.14,4.14-32.49,9.64-47.98,2.14-6.03,5.8-12.07,4.56-18.35-1.78-9.05-12.35-12.37-18.88-6.69-7.34,6.4-11.64,16.37-13.69,25.69Z" fill="#fe5e7d"/>
              <path d="m330.91,237.09c2.21-2.26,5.66-4,8.46-2.54,2.57,1.34,3.29,4.65,3.45,7.54.19,3.59-.05,7.19-.28,10.79-.63,9.45-1.33,19.19-5.64,27.62-1.03,2.01-2.52,4.11-4.75,4.47-2.18.35-4.31-1.18-5.35-3.12-1.04-1.94-1.23-4.21-1.36-6.42-.53-9.07-.42-18.18.32-27.24.34-4.19,2.22-8.11,5.16-11.11Z" fill="#ff809e" opacity=".63"/>
            </g>
            <g>
              <path d="m380.45,238.67c-1.35,16.25-9.11,31.17-16.72,45.58-1.25,2.36-2.53,4.78-4.49,6.6-1.96,1.82-4.75,2.97-7.33,2.29-3.45-.91-5.35-4.65-6.03-8.15-2.49-12.82,5.57-25.06,8.62-37.76,1.95-8.11.08-27.08,9.52-31.15,12.74-5.5,17.12,14.27,16.43,22.59Z" fill="#fe5e7d"/>
              <path d="m349.88,286.26c-2.42-6.33-1.45-13.49.75-19.89s5.58-12.34,8.1-18.63c1.27-3.17,2.53-6.69,5.5-8.38,3.42-1.93,8.07-.45,10.47,2.65,2.4,3.11,2.83,7.38,2.05,11.23s-2.63,7.38-4.46,10.85c-2.98,5.65-5.96,11.3-8.94,16.95-1.27,2.41-2.57,4.86-4.5,6.78-1.21,1.21-4.2,3.55-6.11,2.98-1.59-.47-2.29-3.07-2.86-4.56Z" fill="#ff809e" opacity=".63"/>
            </g>
            <g>
              <path d="m405.64,263.67c-.98,3.97-2.88,8.4-6.83,9.47-2.85.77-5.97-.61-7.9-2.85-1.93-2.23-2.84-5.18-3.31-8.09-1.5-9.36,1.04-19.31-2.19-28.22-2.46-6.79-8.22-13.05-6.85-20.14.93-4.79,7.32-10.44,12.5-8.63,5.1,1.78,8.97,11.77,10.91,16.32,5.64,13.18,7.1,28.2,3.66,42.15Z" fill="#fe5e7d"/>
              <path d="m398.82,232.65c.96-.13,1.97-.13,2.85.28.85.39,1.5,1.13,2.01,1.91,2.83,4.33,2.04,9.99,1.14,15.08-.74,4.21-1.48,8.42-2.23,12.63-.5,2.85-1.35,6.16-4.02,7.28-2.1.88-4.59-.03-6.24-1.6-3.15-2.98-3.79-7.72-3.88-12.06-.18-8.38-.86-21.99,10.37-23.52Z" fill="#ff809e" opacity=".63"/>
            </g>
            <path d="m322.77,185.69c1.72-1.29,3.53-2.53,5.59-3.13,2.03-.59,4.19-.51,6.3-.38,15.36.92,30.58,4.11,45.02,9.43,1.93.71,3.94,1.52,5.26,3.1,1.33,1.58,1.7,4.15.26,5.63-.71.72-1.71,1.07-2.68,1.33-5.68,1.54-11.66,1.24-17.55,1.18-13.54-.15-27.09,1.03-40.41,3.5-3.33.62-6.64,1.32-9.94,2.09-2.87.68-6.95,2.68-9.88,2.52-6.94-.37,1.58-9.08,3.73-11.67,4.21-5.07,9.01-9.65,14.28-13.6Z" fill="#fc426f" opacity=".46"/>
            <g>
              <path d="m277.81,279.59c.23,2.76.62,5.63,2.15,7.94,3.77,5.71,13.02,5.15,18.02.48,5-4.66,6.7-11.84,7.55-18.62,1.39-11.13,1.37-23.04,7.45-32.46,4.62-7.16,12.63-12.72,13.73-21.17.78-6.03-2.75-12.37-8.28-14.88-14.9-6.76-26.13,17.84-31.19,28.4-7.45,15.56-10.88,33.1-9.43,50.32Z" fill="#fe5e7d"/>
              <path d="m293.74,238.51c3.01.06,5.95,1.61,7.71,4.06,2.94,4.09,2.31,9.66,1.55,14.64-.75,4.92-1.51,9.84-2.26,14.76-.52,3.39-1.05,6.82-2.4,9.97-1.79,4.18-5.75,8.02-10.27,7.51-2.86-.32-5.31-2.36-6.76-4.85-1.44-2.49-2-5.38-2.31-8.24-.84-7.77.05-15.72,2.53-23.13,2.02-6.05,4.43-14.87,12.2-14.71Z" fill="#ff809e" opacity=".63"/>
            </g>
          </g>
        </g>
        <g>
          <path d="m104.66,197.86c-5.05-5.89-13.65-7.69-21.32-6.46s-14.64,5-21.46,8.71c-6.66,3.63-13.86,7.88-16.3,15.06-.27.79-.43,1.79.17,2.37.36.35.9.44,1.4.51,20.7,2.91,41.9,2.23,62.37-2,1.49-6.09-.85-13.5-4.87-18.2Z" fill="#fe5e7d"/>
          <g>
            <path d="m116.87,211.14c3.67,1.19,6.84,3.52,9.85,5.94,6.67,5.35,12.87,11.3,18.5,17.73,4.32,4.93,8.52,10.87,7.88,17.39-.11,1.15-.4,2.32-1.08,3.25-1.32,1.78-3.8,2.26-6,2.01-6.57-.74-11.28-6.37-16.1-10.89-3.88-3.64-8.25-6.77-12.94-9.29-4.87-2.61-10.37-4.81-13.35-9.46-6.4-10.01,2.46-20.17,13.24-16.68Z" fill="#fc426f"/>
            <path d="m125.13,229.85c1.59,2.59,7.39,15.5,2.38,20.13-3.25,3-7.91,4.44-12.24,3.57-2.47-.49-8.37.48-10.33-1.11-5.59-4.51-4.08,1.07-7.09,1.93-2.86.82-20.59-3.66-23.41-4.58-2.94-.97-6.14-.61-9.22-.24-3.97.48-7.96.96-11.76,2.21-2.19.72-4.32,1.69-6.61,1.95-3.7.41-7.32-1.11-10.68-2.72-3.07-1.47-6.25-3.18-8.01-6.1-1.73-2.87-1.78-6.48-1.1-9.77,1.49-7.19,6.22-13.43,12.07-17.87,5.85-4.44,12.79-7.24,19.81-9.4,7.28-2.24,14.75-3.84,22.31-4.78,6.23-.78,13.83-2.4,19.45.58,11.03,5.85,17.91,15.6,24.44,26.2Z" fill="#fe5e7d"/>
            <path d="m37.18,263.6c1.27,1.62,2.15,3.52,2.39,5.55" fill="none"/>
            <g>
              <path d="m101.61,262.48c2.43,11.04,2.1,22.47,1.57,33.76-.22,4.74-.54,9.69-2.99,13.75-2.45,4.06-7.75,6.82-12.06,4.83-2.16-1-3.69-2.97-4.9-5.02-8.36-14.14-4.14-32.49-9.64-47.98-2.14-6.03-5.8-12.07-4.56-18.35,1.78-9.05,12.35-12.37,18.88-6.69,7.34,6.4,11.64,16.37,13.69,25.69Z" fill="#fe5e7d"/>
              <path d="m92.85,262.26c-2.21-2.26-5.66-4-8.46-2.54-2.57,1.34-3.29,4.65-3.45,7.54-.19,3.59.04,7.19.28,10.79.63,9.45,1.33,19.19,5.64,27.62,1.03,2.01,2.52,4.11,4.75,4.47,2.18.35,4.31-1.18,5.35-3.12,1.04-1.94,1.23-4.21,1.36-6.41.53-9.07.42-18.18-.32-27.24-.34-4.19-2.22-8.11-5.16-11.11Z" fill="#ff809e" opacity=".63"/>
            </g>
            <g>
              <path d="m43.32,263.84c1.35,16.25,9.11,31.17,16.72,45.58,1.25,2.36,2.53,4.78,4.49,6.6,1.96,1.82,4.75,2.97,7.33,2.29,3.45-.91,5.35-4.65,6.03-8.15,2.49-12.82-5.57-25.06-8.62-37.76-1.95-8.11-.08-27.08-9.52-31.15-12.74-5.5-17.12,14.27-16.43,22.59Z" fill="#fe5e7d"/>
              <path d="m73.89,311.42c2.42-6.33,1.45-13.49-.75-19.89-2.21-6.4-5.58-12.34-8.1-18.63-1.27-3.17-2.53-6.69-5.5-8.38-3.42-1.93-8.07-.45-10.47,2.65-2.4,3.11-2.83,7.38-2.05,11.23.78,3.85,2.63,7.38,4.46,10.85,2.98,5.65,5.96,11.3,8.94,16.95,1.27,2.41,2.57,4.86,4.5,6.78,1.21,1.21,4.2,3.55,6.11,2.98,1.59-.47,2.29-3.07,2.86-4.56Z" fill="#ff809e" opacity=".63"/>
            </g>
            <g>
              <path d="m18.12,288.83c.98,3.97,2.88,8.4,6.83,9.47,2.85.77,5.97-.61,7.9-2.85,1.93-2.23,2.84-5.18,3.31-8.09,1.5-9.36-1.04-19.31,2.19-28.22,2.46-6.79,8.22-13.05,6.85-20.14-.93-4.79-7.32-10.44-12.5-8.63-5.1,1.78-8.97,11.77-10.91,16.32-5.64,13.18-7.1,28.2-3.66,42.15Z" fill="#fe5e7d"/>
              <path d="m24.94,257.82c-.96-.13-1.97-.13-2.85.28-.85.39-1.5,1.13-2.01,1.91-2.83,4.33-2.04,9.99-1.14,15.08.74,4.21,1.48,8.42,2.23,12.63.5,2.85,1.35,6.16,4.02,7.28,2.1.88,4.59-.03,6.24-1.6,3.15-2.98,3.79-7.72,3.88-12.06.18-8.38.86-21.99-10.37-23.52Z" fill="#ff809e" opacity=".63"/>
            </g>
            <path d="m100.99,210.85c-1.72-1.29-3.53-2.53-5.59-3.13-2.03-.59-4.19-.51-6.3-.38-15.36.92-30.58,4.11-45.02,9.43-1.93.71-3.94,1.52-5.26,3.1-1.33,1.58-1.7,4.15-.26,5.63.71.72,1.71,1.07,2.68,1.33,5.68,1.54,11.66,1.24,17.55,1.18,13.54-.15,27.09,1.03,40.41,3.5,3.33.62,6.64,1.32,9.94,2.09,2.87.68,6.95,2.68,9.88,2.52,6.94-.37-1.58-9.08-3.73-11.67-4.21-5.07-9.01-9.65-14.28-13.6Z" fill="#fc426f" opacity=".46"/>
            <g>
              <path d="m145.95,304.76c-.23,2.76-.62,5.63-2.15,7.94-3.77,5.71-13.02,5.15-18.02.48-5-4.66-6.7-11.84-7.55-18.62-1.39-11.13-1.37-23.04-7.45-32.46-4.62-7.16-12.63-12.72-13.73-21.17-.78-6.03,2.75-12.37,8.28-14.88,14.9-6.76,26.13,17.84,31.19,28.4,7.45,15.56,10.88,33.1,9.43,50.32Z" fill="#fe5e7d"/>
              <path d="m130.03,263.67c-3.01.06-5.95,1.61-7.71,4.06-2.94,4.09-2.31,9.66-1.55,14.64.75,4.92,1.51,9.84,2.26,14.76.52,3.39,1.05,6.82,2.4,9.97,1.79,4.18,5.75,8.02,10.27,7.51,2.86-.32,5.31-2.36,6.76-4.85,1.44-2.49,2-5.38,2.31-8.24.84-7.77-.05-15.72-2.53-23.13-2.02-6.05-4.43-14.87-12.2-14.71Z" fill="#ff809e" opacity=".63"/>
            </g>
          </g>
        </g>
      </g>
    </g>
  </g>
</svg>